<?xml version="1.0" standalone="no"?>
<!DOCTYPE svg PUBLIC "-//W3C//DTD SVG 20010904//EN"
 "http://www.w3.org/TR/2001/REC-SVG-20010904/DTD/svg10.dtd">
<svg version="1.0" xmlns="http://www.w3.org/2000/svg"
 width="640.000000pt" height="640.000000pt" viewBox="0 0 640.000000 640.000000"
 preserveAspectRatio="xMidYMid meet">
<metadata>
Created by potrace 1.14, written by Peter Selinger 2001-2017
</metadata>
<g transform="translate(0.000000,640.000000) scale(0.100000,-0.100000)"
fill="#000000" stroke="none">
<path d="M2835 6269 c-27 -4 -106 -15 -175 -24 -169 -21 -195 -29 -343 -97
-71 -33 -170 -70 -220 -83 -263 -68 -435 -222 -583 -520 -38 -77 -71 -197 -80
-290 -3 -33 -12 -90 -20 -127 -31 -146 -26 -259 22 -503 33 -172 29 -280 -18
-439 -33 -110 -95 -209 -261 -416 -38 -47 -73 -96 -78 -109 -12 -30 1 -51 82
-129 l61 -60 -16 -78 c-13 -63 -16 -159 -17 -479 -1 -255 3 -412 9 -433 35
-109 152 -257 244 -307 48 -27 62 -30 148 -30 l95 0 14 -30 c7 -16 33 -63 57
-103 24 -40 44 -74 44 -77 0 -2 22 -37 49 -77 31 -47 83 -105 142 -157 148
-131 167 -150 173 -169 7 -23 64 -301 77 -377 6 -33 19 -110 30 -171 27 -155
27 -152 -34 -211 -47 -47 -185 -133 -214 -133 -16 0 -147 -63 -208 -100 -101
-61 -302 -158 -391 -189 -114 -39 -234 -43 -309 -11 -92 40 -114 24 -138 -100
-13 -64 -12 -171 2 -237 1 -2 343 -3 760 -3 l760 0 -16 48 c-9 26 -39 83 -68
127 -29 44 -76 120 -105 169 -50 85 -52 91 -40 120 7 17 24 73 39 124 26 91
43 115 49 70 12 -87 56 -139 225 -265 67 -51 116 -78 182 -102 133 -49 133
-50 54 -124 -57 -53 -129 -143 -129 -161 0 -3 166 -6 369 -6 l370 0 -15 37
c-23 53 -61 100 -110 134 -87 60 -88 57 23 109 94 45 173 94 239 151 18 14 57
43 88 64 48 31 56 42 57 68 1 41 32 130 47 135 6 2 14 -9 18 -25 4 -15 20 -62
36 -103 l29 -74 -20 -41 c-80 -161 -141 -297 -151 -335 -6 -25 -18 -62 -25
-82 l-15 -38 782 0 781 0 -7 81 c-13 161 -45 252 -97 283 -26 15 -44 17 -132
11 -108 -7 -267 6 -377 31 -124 28 -404 138 -498 195 -35 22 -67 39 -71 39
-12 0 -145 109 -178 146 -40 44 -49 88 -35 168 6 33 27 153 47 266 19 113 38
213 41 223 3 10 83 96 177 190 112 112 184 194 207 232 19 33 62 104 97 158
67 104 62 100 286 239 45 28 82 59 91 76 8 16 20 69 26 118 13 108 21 135 73
244 l40 85 5 318 c4 254 8 321 19 332 26 26 53 100 53 146 0 37 -7 58 -32 96
-33 48 -58 106 -93 213 -10 30 -33 78 -50 105 -18 28 -35 67 -38 88 -3 21 -28
77 -56 125 -46 80 -51 97 -62 186 -15 132 -6 301 21 401 26 92 43 350 29 443
-11 81 -94 390 -123 462 -34 83 -81 144 -189 246 -189 177 -221 188 -524 181
-116 -3 -227 -1 -245 3 -37 10 -100 27 -233 63 -49 14 -119 36 -155 49 -52 20
-90 26 -195 30 -71 3 -152 2 -180 -3z m355 -111 c78 -23 138 -38 286 -72 94
-22 144 -27 340 -32 202 -6 238 -10 301 -30 40 -13 89 -34 108 -46 57 -38 229
-220 252 -268 36 -75 114 -359 119 -435 2 -38 9 -87 15 -108 16 -59 13 -225
-6 -297 -29 -112 -55 -273 -55 -339 0 -36 9 -117 20 -180 11 -63 18 -117 14
-120 -3 -3 -20 3 -37 13 -109 64 -130 69 -106 24 18 -35 64 -84 132 -143 45
-38 75 -76 109 -137 48 -85 70 -148 50 -148 -21 0 -148 103 -214 173 -57 61
-68 68 -74 52 -9 -21 34 -110 75 -154 42 -47 174 -163 206 -183 17 -10 40 -18
52 -18 14 0 36 -17 60 -47 32 -39 38 -54 38 -92 0 -38 -6 -55 -32 -88 -47 -59
-86 -73 -215 -80 -99 -6 -112 -8 -132 -30 l-22 -24 -40 58 c-21 32 -54 78 -73
103 -19 25 -45 70 -59 100 l-25 55 12 285 c11 265 28 441 44 457 4 3 15 -1 24
-9 30 -26 58 -37 73 -28 10 6 5 19 -22 57 -42 57 -53 87 -40 110 8 14 14 8 36
-35 26 -50 50 -72 80 -72 23 0 20 23 -14 87 -16 32 -38 88 -47 125 l-17 66 37
161 c38 160 38 160 28 273 -13 133 -19 156 -78 308 -41 105 -53 124 -140 228
-102 121 -152 166 -223 203 -40 21 -59 24 -170 25 -113 1 -260 18 -260 31 0 3
9 18 21 35 12 16 19 32 15 35 -8 8 -104 -25 -165 -58 -30 -16 -57 -26 -60 -23
-3 3 15 25 42 48 81 72 55 76 -76 10 -69 -34 -100 -57 -123 -87 -42 -57 -69
-105 -62 -112 3 -3 27 6 53 20 63 33 69 32 61 -10 -9 -47 6 -46 85 5 34 22 67
40 73 40 6 0 58 -8 116 -17 59 -9 171 -17 255 -17 147 -1 152 -2 200 -30 28
-16 82 -62 122 -102 63 -63 81 -90 142 -216 115 -233 125 -326 66 -615 -19
-94 -41 -191 -49 -215 -30 -92 -75 -308 -82 -388 -3 -47 -11 -101 -16 -120 -6
-19 -14 -136 -17 -260 l-6 -225 -52 -70 c-29 -38 -64 -81 -78 -94 -31 -28 -32
-51 -4 -51 21 0 51 27 133 118 l38 44 34 -59 c18 -32 34 -61 34 -65 0 -4 27
-52 60 -105 75 -123 85 -167 85 -358 -1 -134 -3 -155 -23 -196 -12 -25 -35
-55 -52 -67 -49 -36 -61 -70 -50 -138 6 -33 14 -75 20 -94 15 -53 12 -103 -10
-151 l-20 -44 0 92 c0 109 -14 183 -41 217 -30 38 -149 85 -149 60 0 -4 15
-23 33 -44 94 -107 88 -93 85 -215 -3 -91 -7 -117 -26 -153 -24 -47 -212 -282
-279 -349 -45 -45 -105 -70 -148 -59 -21 5 -25 11 -19 29 17 53 69 115 122
143 63 34 116 89 143 148 39 87 11 90 -55 6 -36 -45 -64 -69 -119 -97 -135
-71 -165 -149 -178 -458 -13 -316 -18 -348 -67 -432 -63 -108 -132 -158 -206
-150 -275 30 -519 78 -597 117 -63 32 -109 39 -109 16 0 -8 23 -37 51 -64 l51
-50 -39 -6 c-101 -17 -170 -18 -199 -2 -113 61 -140 142 -154 462 -14 315 -24
361 -106 495 -41 68 -70 80 -60 24 3 -19 9 -52 13 -72 l6 -37 -29 18 c-110 70
-269 237 -334 352 -55 95 -72 218 -51 359 17 108 18 180 2 180 -23 0 -53 -71
-65 -155 -6 -43 -14 -81 -17 -85 -12 -11 -52 106 -59 173 -17 162 56 400 143
463 22 16 44 29 49 29 5 0 49 20 98 44 90 44 170 99 170 117 0 15 -43 10 -105
-11 -88 -30 -96 -25 -42 27 l49 46 83 -7 c48 -3 101 -14 126 -26 58 -26 107
-26 135 1 28 27 78 38 143 31 72 -7 63 -32 -12 -32 -80 -1 -61 -40 23 -48 43
-4 55 -1 84 22 19 14 37 34 41 44 3 11 16 24 29 30 29 13 96 71 96 83 0 13
-36 11 -95 -4 -36 -10 -61 -10 -93 -3 -47 10 -103 -4 -191 -51 -41 -21 -71
-29 -71 -18 0 7 31 55 60 93 46 61 75 72 196 72 60 1 128 5 152 9 l42 8 46
-65 46 -66 -11 -137 c-11 -134 -26 -237 -36 -247 -3 -3 -27 5 -54 18 l-50 23
-81 -52 c-45 -28 -109 -73 -143 -99 -34 -26 -147 -94 -250 -152 -300 -168
-348 -199 -384 -254 -27 -39 -33 -58 -33 -101 0 -46 6 -62 48 -126 72 -109
189 -219 234 -219 33 0 19 24 -54 97 -106 104 -141 174 -55 109 18 -13 83 -47
146 -74 62 -28 172 -84 245 -126 216 -123 296 -140 666 -140 l275 0 90 38
c304 129 439 169 604 180 118 8 144 17 139 49 -6 41 -48 50 -275 58 -117 4
-259 14 -315 23 -354 53 -555 84 -617 96 -81 15 -186 12 -312 -10 -76 -13
-166 -20 -271 -21 -138 -1 -164 1 -210 20 -29 11 -93 33 -141 47 -49 15 -91
34 -94 41 -3 8 5 25 18 39 29 31 140 106 147 100 2 -3 -8 -19 -22 -37 -37 -44
-21 -53 41 -23 28 14 70 28 92 31 l41 6 0 -37 c0 -43 18 -48 50 -13 33 34 52
75 48 105 -3 24 -8 27 -45 30 -23 2 -59 -1 -80 -7 -46 -12 -44 -11 116 80 68
38 150 92 181 119 32 28 60 50 63 50 3 0 3 -24 0 -53 -9 -87 46 -160 130 -174
46 -7 71 -30 123 -110 32 -50 95 -106 140 -123 12 -5 39 -5 60 0 39 9 60 27
164 148 44 51 47 52 120 63 86 13 103 20 147 62 l32 30 88 -70 c48 -38 115
-87 148 -109 64 -42 80 -57 65 -62 -21 -7 -8 -31 44 -81 49 -46 59 -51 100
-51 25 0 48 5 51 10 9 14 -13 40 -34 40 -19 0 -95 49 -87 57 9 10 131 -38 159
-62 15 -13 43 -51 62 -83 38 -65 59 -87 75 -77 29 18 -14 148 -68 202 -20 20
-78 56 -131 81 -53 24 -116 59 -141 77 -25 18 -67 44 -95 58 -86 44 -266 200
-295 255 -46 88 -77 120 -136 139 -44 13 -58 14 -80 4 -15 -6 -29 -9 -33 -6
-3 4 -7 87 -9 185 l-4 179 40 -38 c31 -29 54 -41 108 -54 90 -21 100 -22 159
-14 28 4 73 3 100 -2 l50 -9 -52 -1 c-28 0 -55 -5 -58 -11 -8 -13 26 -27 114
-45 52 -10 92 -26 135 -54 34 -22 74 -45 91 -51 43 -16 94 -4 105 25 9 23 14
24 102 27 75 2 93 6 96 19 1 9 -8 20 -23 27 -27 13 -227 17 -238 5 -4 -3 -2
-12 5 -20 6 -7 8 -16 5 -19 -7 -7 -83 29 -126 61 -26 20 -47 25 -95 27 -41 1
-49 3 -24 5 48 5 68 28 44 51 -14 15 -41 17 -186 18 -168 1 -171 1 -228 31
-56 29 -57 30 -55 68 3 35 23 78 23 47 0 -15 35 -16 62 -1 14 8 27 8 42 1 58
-29 211 -41 289 -23 48 11 63 -1 111 -96 45 -89 64 -105 132 -111 l55 -5 64
67 c60 62 86 108 71 123 -3 3 -29 -13 -57 -36 -27 -24 -52 -41 -55 -38 -3 3 2
19 10 36 16 30 21 71 10 71 -4 0 -26 -18 -50 -40 -56 -52 -88 -60 -113 -29
-19 23 -64 159 -53 159 2 0 26 -13 51 -28 71 -43 121 -64 137 -58 13 5 14 17
8 63 -4 32 -7 65 -7 73 0 8 4 85 8 170 8 199 18 244 65 322 33 55 37 65 24 78
-12 13 -17 11 -38 -10 -14 -14 -42 -54 -63 -90 l-38 -65 -5 -170 -5 -170 -27
50 c-14 28 -48 74 -75 102 -46 48 -51 51 -128 62 -44 7 -115 19 -158 26 -66
12 -84 12 -126 -1 -53 -15 -82 -10 -171 36 -29 15 -52 20 -74 16 -30 -6 -35
-2 -84 64 -82 109 -105 89 -56 -50 37 -107 82 -185 151 -264 42 -47 52 -73 34
-92 -15 -16 -23 -72 -11 -79 6 -4 40 23 78 63 59 62 73 71 123 82 50 11 59 10
95 -7 21 -11 68 -30 104 -44 75 -27 60 -35 -40 -20 -136 21 -192 12 -257 -43
-22 -18 -33 -37 -33 -54 0 -24 -1 -25 -14 -7 -21 29 -42 11 -59 -52 l-15 -58
-1 43 c-1 28 -6 45 -16 49 -20 7 -24 3 -40 -44 -12 -33 -17 -38 -42 -35 -41 3
-73 -6 -73 -22 0 -8 20 -24 44 -36 53 -25 52 -15 55 -336 2 -195 0 -229 -18
-294 -11 -40 -28 -81 -37 -91 -24 -27 -70 -24 -98 5 -49 54 -68 261 -43 471 9
72 19 181 23 243 l7 112 42 0 c50 0 75 21 55 45 -7 8 -27 15 -46 15 -73 0 -50
50 35 73 33 9 70 17 81 17 29 0 38 30 14 47 -13 10 -42 13 -94 12 -88 -3 -90
-1 -66 94 23 92 19 177 -13 277 -32 103 -52 112 -63 30 -12 -84 -17 -99 -38
-110 -14 -8 -28 -6 -54 7 -31 14 -47 15 -138 5 -171 -18 -246 -39 -306 -84
-29 -22 -78 -70 -109 -108 -81 -100 -98 -78 -38 49 31 65 35 81 35 155 0 125
-10 206 -26 206 -11 0 -14 -19 -14 -76 0 -75 -14 -138 -61 -279 -17 -50 -20
-74 -14 -145 5 -70 3 -95 -13 -138 -24 -66 -29 -57 -46 88 -10 83 -10 130 -1
225 10 99 9 128 -2 168 -8 26 -18 45 -23 42 -4 -3 -11 -29 -15 -58 -3 -28 -16
-94 -27 -146 -19 -85 -20 -101 -9 -175 7 -44 26 -113 43 -152 31 -73 53 -94
102 -94 16 0 32 -12 50 -40 14 -22 26 -44 26 -50 0 -13 -30 -6 -75 18 -16 9
-55 21 -85 27 -52 11 -56 14 -85 65 -16 30 -34 53 -40 52 -21 -3 -15 -55 14
-112 27 -56 28 -60 10 -60 -32 0 -87 27 -98 49 -9 16 -7 34 9 80 26 79 50 219
50 298 0 36 -9 126 -20 201 -29 196 -39 273 -51 392 -5 58 -21 191 -34 295
-31 247 -40 414 -27 487 6 31 26 91 44 134 50 119 170 227 308 278 271 101
246 95 392 89 109 -4 138 -8 160 -24 56 -39 82 -15 50 48 -40 77 -80 120 -144
156 -73 41 -118 55 -118 38 0 -7 18 -36 40 -66 32 -43 37 -55 26 -64 -10 -8
-22 -8 -40 -1 -64 24 -168 4 -311 -60 -229 -102 -381 -191 -452 -265 -50 -52
-131 -181 -120 -191 2 -3 24 13 48 35 50 46 64 51 55 19 -4 -13 -18 -68 -32
-122 l-25 -100 21 -102 c30 -150 27 -245 -10 -354 -17 -50 -45 -125 -64 -167
-47 -107 -51 -123 -32 -123 23 0 81 78 122 164 41 87 46 86 59 -15 15 -119
-27 -247 -132 -402 -40 -60 -70 -113 -67 -118 9 -14 123 51 149 85 13 17 35
53 49 81 25 49 28 49 39 -3 10 -44 -11 -188 -34 -238 -13 -26 -58 -84 -101
-129 -79 -81 -92 -105 -60 -105 46 0 167 102 205 174 21 40 22 40 25 14 4 -33
-17 -74 -77 -152 -115 -149 -144 -166 -293 -166 -94 0 -118 -5 -118 -25 0 -18
92 -39 175 -40 59 0 81 5 139 33 48 22 64 27 55 15 -25 -31 -63 -63 -99 -82
-42 -23 -116 -98 -107 -108 12 -11 108 24 171 62 104 62 99 45 -22 -80 -46
-47 -87 -83 -91 -80 -4 2 -32 20 -60 40 -29 19 -61 35 -70 35 -32 0 -176 77
-224 120 -26 23 -50 53 -53 66 -6 25 10 49 101 149 41 45 175 259 201 320 23
56 44 203 44 316 0 70 -9 138 -31 245 -36 171 -40 275 -15 379 10 38 21 123
26 190 10 143 21 183 90 312 91 171 168 260 310 356 70 47 101 61 180 81 94
23 183 56 270 100 81 41 143 55 320 72 96 8 176 17 178 18 11 11 267 -10 322
-26z m-347 -2083 c38 -19 46 -19 68 1 10 9 23 13 28 9 23 -14 1 -143 -26 -152
-6 -2 -33 15 -62 37 -52 41 -80 46 -61 10 15 -28 12 -40 -10 -40 -11 0 -27 11
-35 24 -14 22 -79 56 -105 56 -19 0 -10 -28 15 -44 14 -9 23 -21 20 -26 -7
-11 -143 -35 -152 -27 -3 4 -1 19 6 33 24 53 -6 44 -76 -23 -38 -38 -84 -88
-102 -113 -28 -39 -92 -90 -113 -90 -28 0 29 117 93 191 82 94 166 137 319
165 84 15 149 11 193 -11z m452 -30 c57 -26 84 -29 182 -25 30 1 95 -9 158
-25 92 -24 110 -26 131 -14 30 16 46 2 100 -86 72 -118 85 -145 72 -145 -20 0
-32 11 -66 62 -38 56 -51 65 -63 47 -6 -11 -18 -5 -51 27 -51 49 -106 80 -120
66 -5 -5 -3 -14 7 -22 18 -15 20 -44 3 -37 -7 3 -43 17 -81 33 -66 27 -69 27
-135 14 -129 -26 -170 -12 -213 73 -33 63 -13 71 76 32z m-392 -205 c14 -13
22 -174 9 -166 -7 4 -17 26 -23 49 -20 79 -11 76 -241 79 -193 3 -205 4 -197
21 7 13 23 17 62 18 29 1 63 5 77 9 30 10 301 1 313 -10z m-502 -121 c-16 -35
-41 -77 -55 -94 -24 -29 -26 -29 -53 -15 -39 22 -41 46 -4 65 17 8 54 38 83
65 29 27 53 48 55 46 2 -2 -10 -32 -26 -67z m-596 1 c-10 -11 -20 -18 -23 -16
-5 6 21 35 32 36 5 0 1 -9 -9 -20z m128 -249 c8 -8 3 -19 -16 -39 -16 -16 -30
-46 -34 -66 -4 -28 -12 -40 -31 -47 -38 -14 -98 -66 -120 -102 -18 -29 -70
-161 -103 -262 -7 -22 -13 -76 -13 -120 -1 -65 6 -99 33 -180 31 -93 72 -188
106 -245 8 -14 24 -50 35 -81 71 -198 352 -489 472 -489 40 0 54 -30 67 -145
7 -55 14 -119 18 -142 11 -82 8 -80 -339 273 -122 124 -219 245 -253 313 -13
26 -43 92 -66 147 -23 54 -52 124 -65 154 -12 31 -35 97 -49 147 -25 87 -26
101 -23 285 3 190 4 195 38 297 22 65 44 111 59 125 13 11 62 61 110 109 84
87 87 89 125 84 21 -3 43 -10 49 -16z m-592 -61 c23 -13 24 -33 2 -66 -35 -55
-50 -242 -20 -261 13 -8 24 12 42 77 17 60 21 71 54 143 20 45 24 48 49 42 34
-8 71 -32 78 -50 3 -8 -2 -35 -12 -60 -13 -34 -27 -51 -53 -65 -50 -26 -83
-64 -125 -145 -36 -71 -42 -102 -38 -206 2 -52 5 -60 45 -99 23 -24 61 -58 84
-77 42 -34 73 -93 73 -138 0 -14 -6 -25 -12 -25 -7 0 -52 40 -100 90 -48 49
-89 90 -92 90 -11 0 -6 -51 7 -83 8 -18 49 -69 91 -114 70 -74 81 -82 119 -85
41 -3 42 -4 68 -68 18 -45 23 -69 16 -77 -13 -17 -90 -16 -132 2 -64 26 -138
108 -181 197 l-39 83 2 385 c4 517 8 545 74 510z m3463 -116 c12 -48 13 -377
3 -456 -11 -77 -68 -160 -174 -251 -116 -100 -112 -131 9 -82 81 33 88 25 60
-64 -16 -50 -30 -74 -50 -87 -41 -27 -143 -84 -150 -84 -7 0 -4 231 3 266 2
11 25 43 50 70 55 59 116 177 122 236 3 24 -5 95 -16 158 -16 93 -29 132 -66
205 -25 50 -45 93 -45 97 1 25 119 29 138 4 16 -20 25 -107 31 -311 5 -168 8
-200 21 -200 28 0 42 73 43 215 0 90 -5 165 -17 224 -14 73 -15 91 -4 97 21
14 32 5 42 -37z m-1437 -214 c32 -65 30 -92 -12 -129 -31 -27 -43 -31 -95 -31
-33 0 -60 2 -60 5 0 25 43 152 57 168 45 49 82 45 110 -13z m-524 8 c8 -18 17
-62 19 -98 l3 -65 -53 -3 c-41 -2 -59 2 -82 18 -34 24 -37 44 -15 98 36 85
100 110 128 50z m-1371 -340 c-5 -5 -22 2 -40 17 -35 29 -57 93 -47 132 13 53
47 133 68 159 l22 29 3 -164 c1 -91 -1 -168 -6 -173z m3113 192 c8 -85 -4
-145 -35 -182 -11 -12 -19 -18 -20 -12 0 18 20 215 26 258 9 55 21 28 29 -64z
m-2365 -164 c0 -2 -7 -7 -16 -10 -8 -3 -12 -2 -9 4 6 10 25 14 25 6z m2215
-204 c-8 -59 -14 -56 -29 14 -5 23 -2 36 11 49 23 23 27 9 18 -63z m-1434
-132 c32 -9 37 -16 53 -65 9 -30 21 -55 25 -55 12 0 21 26 21 56 0 33 19 38
92 25 70 -12 88 -28 88 -78 0 -45 18 -41 38 8 l16 42 126 -7 c136 -8 190 -16
193 -30 1 -5 -44 -35 -101 -68 -142 -82 -199 -92 -475 -85 -203 5 -208 6 -226
29 -10 13 -28 34 -39 48 l-21 25 -38 -44 c-52 -59 -73 -54 -95 24 -31 112 -22
141 45 152 30 4 37 2 47 -18 7 -13 15 -26 17 -29 2 -2 21 15 42 38 37 40 41
42 97 42 33 0 75 -5 95 -10z m1404 -178 c-45 -115 -56 -134 -129 -232 -198
-263 -241 -316 -296 -357 -25 -19 -67 -56 -95 -82 -60 -57 -112 -94 -122 -88
-5 3 -8 62 -8 132 l0 128 69 19 c109 30 210 111 297 240 22 31 44 60 50 63 6
4 31 34 55 67 24 33 44 53 44 44 0 -25 15 -19 50 21 54 61 100 140 102 175 1
23 3 18 5 -15 3 -35 -3 -66 -22 -115z m-1823 38 c5 -41 4 -78 0 -82 -4 -4 -28
2 -52 15 -41 20 -46 26 -54 70 -11 62 2 79 58 75 l41 -3 7 -75z m-270 -907
c16 -24 32 -71 42 -123 32 -166 44 -188 144 -262 55 -41 123 -68 171 -68 22
-1 36 -16 89 -100 35 -54 79 -135 99 -180 20 -44 42 -80 49 -80 47 0 -3 167
-102 337 -10 17 -16 35 -12 39 22 21 358 45 358 25 0 -6 -12 -30 -26 -53 -37
-57 -53 -100 -65 -166 -6 -32 -16 -63 -22 -71 -7 -8 -13 -67 -15 -150 -3 -123
-1 -139 17 -168 12 -18 28 -33 37 -33 14 0 15 7 10 40 -6 39 -6 40 23 40 43 0
152 29 186 50 51 32 191 187 248 275 28 44 60 142 48 149 -11 7 -22 -4 -91
-89 -35 -44 -67 -82 -70 -85 -3 -3 -23 -29 -45 -58 -73 -97 -223 -209 -282
-212 -43 -1 17 248 92 385 56 101 69 109 183 109 115 1 156 18 240 99 66 64
78 86 98 184 10 44 26 88 37 100 11 13 22 21 24 20 3 -4 -20 -173 -37 -272 -6
-33 -16 -89 -21 -125 -6 -36 -33 -134 -61 -218 l-50 -153 -106 -80 c-107 -80
-182 -121 -322 -178 -118 -48 -159 -43 -372 50 -63 28 -84 43 -120 89 -61 76
-100 141 -143 238 -21 45 -44 82 -51 82 -8 0 -14 -4 -14 -10 0 -14 44 -146 68
-208 12 -28 18 -52 13 -52 -5 0 -30 19 -56 43 -42 38 -49 51 -71 132 -14 50
-29 117 -33 150 -5 33 -14 78 -19 100 -6 22 -32 131 -57 243 -25 112 -48 214
-51 228 -9 36 10 29 38 -13z"/>
<path d="M3093 6076 c-65 -83 -127 -296 -86 -296 28 0 117 234 111 292 l-3 33
-22 -29z"/>
<path d="M3176 5968 c-109 -122 -146 -250 -50 -176 58 45 93 100 114 177 19
70 0 70 -64 -1z"/>
<path d="M2770 5998 c1 -41 38 -106 86 -153 45 -43 88 -65 101 -52 19 20 -56
144 -119 195 -47 38 -68 41 -68 10z"/>
<path d="M4216 5032 c-3 -5 -39 -87 -81 -183 -42 -96 -81 -180 -87 -186 -6 -7
-34 -26 -63 -43 -28 -16 -64 -41 -78 -55 -48 -49 -86 -157 -73 -210 9 -35 17
-31 45 18 41 72 90 124 162 173 62 43 73 55 114 135 25 48 51 113 59 145 20
81 31 214 17 214 -5 0 -12 -4 -15 -8z"/>
<path d="M2055 4788 c9 -41 16 -52 98 -169 102 -145 216 -249 273 -249 26 0
-19 67 -107 159 -44 45 -92 99 -107 120 -122 164 -172 208 -157 139z"/>
<path d="M4434 3769 c-8 -13 -5 -15 100 -92 81 -59 96 -81 105 -149 7 -65 27
-72 59 -23 38 60 31 91 -38 156 -80 77 -207 138 -226 108z"/>
<path d="M2259 3381 c-68 -18 -126 -48 -150 -77 -7 -8 -30 -24 -51 -35 -21
-11 -38 -24 -38 -30 0 -22 103 1 174 37 38 20 91 42 117 50 87 26 118 75 46
73 -18 0 -62 -8 -98 -18z"/>
<path d="M3690 3351 c0 -15 94 -91 113 -91 33 0 14 33 -37 68 -48 32 -76 40
-76 23z"/>
<path d="M4240 3282 c0 -4 18 -26 41 -47 56 -55 60 -64 74 -187 13 -112 22
-135 49 -125 22 9 22 156 0 243 -23 89 -56 124 -118 124 -25 0 -46 -4 -46 -8z"/>
<path d="M2085 3206 c-72 -29 -140 -58 -151 -64 -44 -24 -114 -126 -97 -142 4
-5 46 16 93 45 47 30 126 79 175 109 121 74 132 82 120 95 -7 7 -51 -6 -140
-43z"/>
<path d="M3325 1913 c-86 -36 -255 -42 -352 -13 -80 23 -154 30 -160 14 -5
-15 45 -65 105 -106 42 -29 55 -32 156 -40 100 -7 117 -6 166 12 93 35 193
121 175 150 -9 14 -21 12 -90 -17z"/>
<path d="M3503 1344 c-90 -95 -232 -143 -390 -131 -54 4 -75 2 -83 -8 -16 -20
-6 -31 48 -55 38 -17 70 -21 172 -23 142 -2 163 5 237 86 41 45 92 162 77 177
-5 5 -31 -15 -61 -46z"/>
<path d="M587 3644 c-4 -4 -7 -280 -7 -614 l0 -607 -23 -34 c-21 -31 -27 -34
-80 -37 l-57 -3 0 -141 0 -140 193 4 c217 6 257 16 314 81 59 68 58 49 58 802
l0 690 -196 3 c-107 1 -198 -1 -202 -4z"/>
<path d="M5040 2860 l0 -790 355 0 355 0 0 155 c0 96 -4 155 -10 156 -5 1 -14
3 -20 4 -5 1 -69 3 -140 4 l-130 1 2 168 3 167 115 5 c63 3 121 9 128 13 9 6
12 43 11 139 0 72 -3 137 -6 145 -4 10 -35 13 -129 13 l-125 0 3 143 3 142
130 5 130 5 7 65 c5 36 6 97 4 135 -3 39 -5 80 -5 93 l-1 22 -340 0 -340 0 0
-790z"/>
</g>
</svg>
